<svg xmlns="http://www.w3.org/2000/svg" viewBox="0 0 29.553 29.584">
  <defs>
    <style>
      .cls-1 {
        fill: #fffdfd;
        stroke: rgba(0,0,0,0);
      }
    </style>
  </defs>
  <path id="compose" class="cls-1" d="M23.634,28.526H0V4.9H18.658L17.415,6.147H1.243V27.283H22.391V11.119l1.243-1.242V28.525ZM9.626,18.86h0l.63-2.263.63-2.267,6.14-6.094,6.141-6.094.538.535.539.538L11.965,15.4l.792.787.285.284L25.323,4.289l.507.5.572.567L14.123,17.548l-4.5,1.312ZM27.013,4.75h0L23.775,1.533l.447-.5.5-.569a1.6,1.6,0,0,1,2.247,0l1.121,1.119a1.512,1.512,0,0,1,.309.464,1.569,1.569,0,0,1,0,1.308,1.555,1.555,0,0,1-.309.464l-1.078.932Z" transform="translate(0.5 0.5)"/>
</svg>
