<svg xmlns="http://www.w3.org/2000/svg" viewBox="0 0 312.478 78.854">
  <g id="Artwork_2" data-name="Artwork 2" transform="translate(165.775 41.833)">
    <g id="Artwork_2-2" data-name="Artwork 2" transform="translate(-165.775 -41.833)">
      <path id="Path_1" data-name="Path 1" d="M156.739,0H103.174V13.456h52.812c18.148,0,23.7,5.719,25.015,14.624H126.838c-20.12,0-29.1,7.794-29.1,25.273,0,17.627,9.093,25.485,29.477,25.485h67.191V33.783C194.406,11.058,182.1,0,156.739,0M181.3,65.382H128.648c-16.532,0-17.223-3.694-17.223-12.036,0-8.028,1.718-11.813,17.505-11.813h52.375Z" transform="translate(118.072 0)"/>
      <path id="Path_2" data-name="Path 2" d="M60.875,50.131h53.739c20.111,0,29.078-7.7,29.078-24.951,0-17.664-8.792-25.172-29.46-25.172H85.461C51.517-.01,46.847,18.94,46.847,39.408s4.67,39.42,38.614,39.42h55.013V65.47H86.4c-18.548,0-23.834-4.957-25.523-15.339M86.4,13.051h26.41c15.589,0,17.223,3.694,17.223,12.124,0,8-1.654,11.508-17.505,11.508H60.179c.393-16.624,4.758-23.626,26.22-23.626" transform="translate(56.593 0.01)"/>
      <path id="Path_3" data-name="Path 3" d="M77.306,0,13.295,61.238V0H0V78.854H14.032L44.764,49.416,79.713,78.854h21.005l-46.108-38.6L96.518,0Z"/>
    </g>
  </g>
</svg>
